<svg width="119" height="41" viewBox="0 0 119 41" fill="none" xmlns="http://www.w3.org/2000/svg">
<rect width="119" height="41" rx="16" fill="#F9DEEA"/>
<path d="M47.552 26L43.248 20.416L44.208 19.84L48.912 26H47.552ZM39.888 26V14.8H41.04V26H39.888ZM40.688 20.864V19.824H44.192V20.864H40.688ZM44.304 20.528L43.216 20.336L47.392 14.8H48.672L44.304 20.528ZM53.822 26.08C53.0113 26.08 52.2807 25.8987 51.63 25.536C50.99 25.1627 50.4833 24.656 50.11 24.016C49.7367 23.3653 49.55 22.624 49.55 21.792C49.55 20.9493 49.7367 20.208 50.11 19.568C50.4833 18.928 50.99 18.4267 51.63 18.064C52.27 17.7013 53.0007 17.52 53.822 17.52C54.654 17.52 55.39 17.7013 56.03 18.064C56.6807 18.4267 57.1873 18.928 57.55 19.568C57.9233 20.208 58.11 20.9493 58.11 21.792C58.11 22.624 57.9233 23.3653 57.55 24.016C57.1873 24.656 56.6807 25.1627 56.03 25.536C55.3793 25.8987 54.6433 26.08 53.822 26.08ZM53.822 25.072C54.43 25.072 54.9687 24.9387 55.438 24.672C55.9073 24.3947 56.2753 24.0107 56.542 23.52C56.8193 23.0187 56.958 22.4427 56.958 21.792C56.958 21.1307 56.8193 20.5547 56.542 20.064C56.2753 19.5733 55.9073 19.1947 55.438 18.928C54.9687 18.6507 54.4353 18.512 53.838 18.512C53.2407 18.512 52.7073 18.6507 52.238 18.928C51.7687 19.1947 51.3953 19.5733 51.118 20.064C50.8407 20.5547 50.702 21.1307 50.702 21.792C50.702 22.4427 50.8407 23.0187 51.118 23.52C51.3953 24.0107 51.7687 24.3947 52.238 24.672C52.7073 24.9387 53.2353 25.072 53.822 25.072ZM64.8739 26.08C64.1485 26.08 63.4925 25.9147 62.9059 25.584C62.3192 25.2427 61.8499 24.7573 61.4979 24.128C61.1565 23.488 60.9859 22.7093 60.9859 21.792C60.9859 20.8747 61.1565 20.1013 61.4979 19.472C61.8392 18.832 62.3032 18.3467 62.8899 18.016C63.4765 17.6853 64.1379 17.52 64.8739 17.52C65.6739 17.52 66.3885 17.7013 67.0179 18.064C67.6579 18.416 68.1592 18.9173 68.5219 19.568C68.8845 20.208 69.0659 20.9493 69.0659 21.792C69.0659 22.6453 68.8845 23.392 68.5219 24.032C68.1592 24.672 67.6579 25.1733 67.0179 25.536C66.3885 25.8987 65.6739 26.08 64.8739 26.08ZM60.5379 29.104V17.6H61.6259V20.128L61.5139 21.808L61.6739 23.504V29.104H60.5379ZM64.7939 25.072C65.3912 25.072 65.9245 24.9387 66.3939 24.672C66.8632 24.3947 67.2365 24.0107 67.5139 23.52C67.7912 23.0187 67.9299 22.4427 67.9299 21.792C67.9299 21.1413 67.7912 20.5707 67.5139 20.08C67.2365 19.5893 66.8632 19.2053 66.3939 18.928C65.9245 18.6507 65.3912 18.512 64.7939 18.512C64.1965 18.512 63.6579 18.6507 63.1779 18.928C62.7085 19.2053 62.3352 19.5893 62.0579 20.08C61.7912 20.5707 61.6579 21.1413 61.6579 21.792C61.6579 22.4427 61.7912 23.0187 62.0579 23.52C62.3352 24.0107 62.7085 24.3947 63.1779 24.672C63.6579 24.9387 64.1965 25.072 64.7939 25.072ZM73.7001 26.096C74.3935 26.096 75.0175 25.9893 75.5721 25.776C76.1375 25.5627 76.5855 25.2693 76.9161 24.896C77.2468 24.512 77.4121 24.0693 77.4121 23.568C77.4121 22.928 77.1401 22.4213 76.5961 22.048C76.0628 21.6747 75.3161 21.488 74.3561 21.488L74.3081 21.792C74.8521 21.792 75.3375 21.7067 75.7641 21.536C76.1908 21.3653 76.5321 21.1253 76.7881 20.816C77.0441 20.5067 77.1721 20.144 77.1721 19.728C77.1721 19.2587 77.0121 18.8587 76.6921 18.528C76.3721 18.1867 75.9401 17.9253 75.3961 17.744C74.8628 17.5627 74.2601 17.4827 73.5881 17.504C73.0975 17.504 72.6068 17.5733 72.1161 17.712C71.6361 17.84 71.1508 18.032 70.6601 18.288L70.9801 19.168C71.4175 18.944 71.8601 18.7787 72.3081 18.672C72.7561 18.5547 73.1881 18.4907 73.6041 18.48C74.0628 18.48 74.4735 18.5333 74.8361 18.64C75.1988 18.7467 75.4815 18.9067 75.6841 19.12C75.8975 19.3333 76.0041 19.5893 76.0041 19.888C76.0041 20.1653 75.9135 20.4053 75.7321 20.608C75.5615 20.8107 75.3161 20.9653 74.9961 21.072C74.6761 21.1787 74.3081 21.232 73.8921 21.232H72.5321V22.064H73.9721C74.6761 22.064 75.2308 22.192 75.6361 22.448C76.0415 22.6933 76.2441 23.04 76.2441 23.488C76.2441 23.7973 76.1375 24.0747 75.9241 24.32C75.7108 24.5653 75.4121 24.7573 75.0281 24.896C74.6441 25.0347 74.1908 25.1093 73.6681 25.12C73.1455 25.12 72.6175 25.0453 72.0841 24.896C71.5508 24.736 71.0815 24.5067 70.6761 24.208L70.3081 25.056C70.7668 25.408 71.2948 25.6693 71.8921 25.84C72.4895 26.0107 73.0921 26.096 73.7001 26.096ZM79.991 26V17.6H81.127V24.272L86.743 17.6H87.751V26H86.615V19.312L81.015 26H79.991ZM91.0066 26V17.6H92.1426V21.312H97.4386V17.6H98.5746V26H97.4386V22.288H92.1426V26H91.0066ZM107.02 26V24.144L106.972 23.84V20.736C106.972 20.0213 106.769 19.472 106.364 19.088C105.969 18.704 105.377 18.512 104.588 18.512C104.044 18.512 103.526 18.6027 103.036 18.784C102.545 18.9653 102.129 19.2053 101.788 19.504L101.276 18.656C101.702 18.2933 102.214 18.016 102.812 17.824C103.409 17.6213 104.038 17.52 104.7 17.52C105.788 17.52 106.625 17.792 107.212 18.336C107.809 18.8693 108.108 19.6853 108.108 20.784V26H107.02ZM104.124 26.08C103.494 26.08 102.945 25.9787 102.476 25.776C102.017 25.5627 101.665 25.2747 101.42 24.912C101.174 24.5387 101.052 24.112 101.052 23.632C101.052 23.1947 101.153 22.8 101.356 22.448C101.569 22.0853 101.91 21.7973 102.38 21.584C102.86 21.36 103.5 21.248 104.299 21.248H107.196V22.096H104.332C103.521 22.096 102.956 22.24 102.636 22.528C102.326 22.816 102.172 23.1733 102.172 23.6C102.172 24.08 102.358 24.464 102.732 24.752C103.105 25.04 103.628 25.184 104.299 25.184C104.94 25.184 105.489 25.04 105.948 24.752C106.417 24.4533 106.758 24.0267 106.972 23.472L107.228 24.256C107.014 24.8107 106.641 25.2533 106.108 25.584C105.585 25.9147 104.924 26.08 104.124 26.08Z" fill="black"/>
<path d="M32.7324 15.125H21.2891L15.9629 7.83872C15.752 7.48926 15.4531 7.29706 15.0664 7.26211C14.6797 7.22716 14.3105 7.34948 13.959 7.62905C13.4316 8.18819 13.3965 8.74733 13.8535 9.30647L18.0195 15.125H10.2676C9.63477 15.125 9.09863 15.3434 8.65918 15.7803C8.21973 16.2171 8 16.7325 8 17.3266V18.4799C8 19.4583 8.45703 20.1223 9.37109 20.4718L12.4824 29.9597C12.623 30.4489 12.9043 30.8945 13.3262 31.2964C13.748 31.6983 14.2227 31.8992 14.75 31.8992H28.25C28.7773 31.8992 29.252 31.6983 29.6738 31.2964C30.0957 30.8945 30.377 30.4489 30.5176 29.9597L33.6289 20.5766C34.543 20.2272 35 19.5632 35 18.5847V17.4315C35 16.7675 34.7803 16.2171 34.3408 15.7803C33.9014 15.3434 33.3652 15.125 32.7324 15.125ZM10.2676 17.3266H19.707L20.498 18.375C20.5684 18.375 20.6035 18.41 20.6035 18.4799H10.2676V17.3266ZM28.3555 29.3307V29.4355C28.3555 29.4704 28.3379 29.5054 28.3027 29.5403C28.2676 29.5753 28.25 29.6102 28.25 29.6452H14.8555C14.7852 29.6452 14.75 29.5753 14.75 29.4355L11.8496 20.6815H31.1504L28.3555 29.3307ZM22.502 18.4799C22.748 18.0605 22.8711 17.6761 22.8711 17.3266H32.7324V18.4799H22.502ZM15.8574 27.6532C15.8926 27.8979 16.0332 28.1075 16.2793 28.2823C16.5254 28.457 16.7715 28.5444 17.0176 28.5444H17.2285C17.5098 28.4745 17.7383 28.2997 17.9141 28.0202C18.0898 27.7406 18.125 27.461 18.0195 27.1815L16.9121 22.7258C16.8418 22.4463 16.666 22.2191 16.3848 22.0444C16.1035 21.8696 15.8223 21.8347 15.541 21.9395C15.2598 22.0094 15.0312 22.1842 14.8555 22.4637C14.6797 22.7433 14.6445 23.0054 14.75 23.25L15.8574 27.6532ZM25.7715 28.5444H25.9824C26.2285 28.5444 26.4746 28.457 26.7207 28.2823C26.9668 28.1075 27.1074 27.8979 27.1426 27.6532L28.25 23.1452C28.3203 22.8656 28.2764 22.586 28.1182 22.3065C27.96 22.0269 27.7402 21.8696 27.459 21.8347C26.7207 21.6949 26.2637 21.957 26.0879 22.621L24.9805 27.0766C24.7695 27.7756 25.0332 28.2648 25.7715 28.5444ZM21.5 28.5444C22.2383 28.5444 22.6074 28.16 22.6074 27.3911V22.9355C22.6074 22.2016 22.2383 21.8347 21.5 21.8347C20.7617 21.8347 20.3926 22.2016 20.3926 22.9355V27.3911C20.3926 28.16 20.7617 28.5444 21.5 28.5444Z" fill="#C8053A"/>
</svg>
