<svg width="109" height="41" viewBox="0 0 109 41" fill="none" xmlns="http://www.w3.org/2000/svg">
<rect width="109" height="41" rx="16" fill="#F9DEEA"/>
<path d="M44.36 27V13H50.18C51.66 13 52.82 13.3067 53.66 13.92C54.5133 14.52 54.94 15.4067 54.94 16.58C54.94 17.74 54.5333 18.62 53.72 19.22C52.9067 19.8067 51.84 20.1 50.52 20.1L50.86 19.6C52.42 19.6 53.6067 19.9067 54.42 20.52C55.2333 21.1333 55.64 22.0333 55.64 23.22C55.64 24.42 55.2133 25.3533 54.36 26.02C53.52 26.6733 52.2533 27 50.56 27H44.36ZM45.82 25.82H50.56C51.7467 25.82 52.6467 25.6 53.26 25.16C53.8733 24.72 54.18 24.04 54.18 23.12C54.18 22.2133 53.8733 21.5467 53.26 21.12C52.6467 20.6933 51.7467 20.48 50.56 20.48H45.82V25.82ZM45.82 19.34H50.1C51.18 19.34 52.0067 19.1267 52.58 18.7C53.1667 18.26 53.46 17.6133 53.46 16.76C53.46 15.9067 53.1667 15.2667 52.58 14.84C52.0067 14.4 51.18 14.18 50.1 14.18H45.82V19.34ZM57.2805 27L61.7205 21.24L61.7005 21.94L57.4805 16.5H59.0805L62.5405 21L61.9405 20.98L65.4005 16.5H66.9605L62.7005 22L62.7205 21.24L67.2005 27H65.5805L61.9205 22.2L62.4805 22.28L58.8805 27H57.2805ZM73.4767 27.1C72.4634 27.1 71.5501 26.8733 70.7367 26.42C69.9367 25.9533 69.3034 25.32 68.8367 24.52C68.3701 23.7067 68.1367 22.78 68.1367 21.74C68.1367 20.6867 68.3701 19.76 68.8367 18.96C69.3034 18.16 69.9367 17.5333 70.7367 17.08C71.5367 16.6267 72.4501 16.4 73.4767 16.4C74.5167 16.4 75.4367 16.6267 76.2367 17.08C77.0501 17.5333 77.6834 18.16 78.1367 18.96C78.6034 19.76 78.8367 20.6867 78.8367 21.74C78.8367 22.78 78.6034 23.7067 78.1367 24.52C77.6834 25.32 77.0501 25.9533 76.2367 26.42C75.4234 26.8733 74.5034 27.1 73.4767 27.1ZM73.4767 25.84C74.2367 25.84 74.9101 25.6733 75.4967 25.34C76.0834 24.9933 76.5434 24.5133 76.8767 23.9C77.2234 23.2733 77.3967 22.5533 77.3967 21.74C77.3967 20.9133 77.2234 20.1933 76.8767 19.58C76.5434 18.9667 76.0834 18.4933 75.4967 18.16C74.9101 17.8133 74.2434 17.64 73.4967 17.64C72.7501 17.64 72.0834 17.8133 71.4967 18.16C70.9101 18.4933 70.4434 18.9667 70.0967 19.58C69.7501 20.1933 69.5767 20.9133 69.5767 21.74C69.5767 22.5533 69.7501 23.2733 70.0967 23.9C70.4434 24.5133 70.9101 24.9933 71.4967 25.34C72.0834 25.6733 72.7434 25.84 73.4767 25.84ZM89.013 26.32V17.74H83.953L83.833 20.08C83.8063 20.7867 83.7596 21.48 83.693 22.16C83.6396 22.84 83.5396 23.4667 83.393 24.04C83.2596 24.6 83.0663 25.06 82.813 25.42C82.5596 25.7667 82.233 25.9667 81.833 26.02L80.413 25.76C80.8263 25.7733 81.1663 25.6267 81.433 25.32C81.6996 25 81.9063 24.5667 82.053 24.02C82.1996 23.4733 82.3063 22.8533 82.373 22.16C82.4396 21.4533 82.493 20.7333 82.533 20L82.673 16.5H90.433V26.32H89.013ZM79.973 29.54V25.76H92.073V29.54H90.733V27H81.313V29.54H79.973Z" fill="black"/>
<g clip-path="url(#clip0_12_4)">
<path d="M20.9555 6.37777C20.1057 6.35744 19.2603 6.50729 18.4692 6.81848C17.678 7.12968 16.9571 7.59594 16.3489 8.18985C15.7406 8.78375 15.2572 9.4933 14.9272 10.2768C14.5972 11.0602 14.4272 11.9018 14.4272 12.7519C14.4272 13.602 14.5972 14.4436 14.9272 15.227C15.2572 16.0105 15.7406 16.7201 16.3489 17.314C16.9571 17.9079 17.678 18.3741 18.4692 18.6853C19.2603 18.9965 20.1057 19.1464 20.9555 19.126C21.8054 19.1464 22.6508 18.9965 23.4419 18.6853C24.2331 18.3741 24.954 17.9079 25.5622 17.314C26.1705 16.7201 26.6539 16.0105 26.9839 15.227C27.3139 14.4436 27.4839 13.602 27.4839 12.7519C27.4839 11.9018 27.3139 11.0602 26.9839 10.2768C26.6539 9.4933 26.1705 8.78375 25.5622 8.18985C24.954 7.59594 24.2331 7.12968 23.4419 6.81848C22.6508 6.50729 21.8054 6.35744 20.9555 6.37777ZM17.3111 22.7668C15.6196 22.7668 13.9974 23.4388 12.8013 24.6348C11.6053 25.8309 10.9333 27.4531 10.9333 29.1446V33.6947H30.9778V29.1446C30.9778 27.4531 30.3058 25.8309 29.1098 24.6348C27.9137 23.4388 26.2915 22.7668 24.6 22.7668H17.3111Z" fill="#E5003E"/>
</g>
<defs>
<clipPath id="clip0_12_4">
<rect width="27.3333" height="27.3333" fill="white" transform="translate(7.28888 6.37778)"/>
</clipPath>
</defs>
</svg>
