<svg width="286" height="116" viewBox="0 0 286 116" fill="none" xmlns="http://www.w3.org/2000/svg">
<path d="M127.28 52.24C125.2 52.24 123.2 51.9067 121.28 51.24C119.387 50.5467 117.92 49.6667 116.88 48.6L118.04 46.32C119.027 47.28 120.347 48.0933 122 48.76C123.68 49.4 125.44 49.72 127.28 49.72C129.04 49.72 130.467 49.5067 131.56 49.08C132.68 48.6267 133.493 48.0267 134 47.28C134.533 46.5333 134.8 45.7067 134.8 44.8C134.8 43.7067 134.48 42.8267 133.84 42.16C133.227 41.4933 132.413 40.9733 131.4 40.6C130.387 40.2 129.267 39.8533 128.04 39.56C126.813 39.2667 125.587 38.96 124.36 38.64C123.133 38.2933 122 37.84 120.96 37.28C119.947 36.72 119.12 35.9867 118.48 35.08C117.867 34.1467 117.56 32.9333 117.56 31.44C117.56 30.0533 117.92 28.7867 118.64 27.64C119.387 26.4667 120.52 25.5333 122.04 24.84C123.56 24.12 125.507 23.76 127.88 23.76C129.453 23.76 131.013 23.9867 132.56 24.44C134.107 24.8667 135.44 25.4667 136.56 26.24L135.56 28.6C134.36 27.8 133.08 27.2133 131.72 26.84C130.387 26.4667 129.093 26.28 127.84 26.28C126.16 26.28 124.773 26.5067 123.68 26.96C122.587 27.4133 121.773 28.0267 121.24 28.8C120.733 29.5467 120.48 30.4 120.48 31.36C120.48 32.4533 120.787 33.3333 121.4 34C122.04 34.6667 122.867 35.1867 123.88 35.56C124.92 35.9333 126.053 36.2667 127.28 36.56C128.507 36.8533 129.72 37.1733 130.92 37.52C132.147 37.8667 133.267 38.32 134.28 38.88C135.32 39.4133 136.147 40.1333 136.76 41.04C137.4 41.9467 137.72 43.1333 137.72 44.6C137.72 45.96 137.347 47.2267 136.6 48.4C135.853 49.5467 134.707 50.48 133.16 51.2C131.64 51.8933 129.68 52.24 127.28 52.24ZM139.689 52L152.489 24H155.409L168.209 52H165.089L153.329 25.72H154.529L142.769 52H139.689ZM144.729 44.52L145.609 42.12H161.889L162.769 44.52H144.729ZM184.611 52.24C182.504 52.24 180.557 51.8933 178.771 51.2C176.984 50.48 175.437 49.48 174.131 48.2C172.824 46.92 171.797 45.4133 171.051 43.68C170.331 41.9467 169.971 40.0533 169.971 38C169.971 35.9467 170.331 34.0533 171.051 32.32C171.797 30.5867 172.824 29.08 174.131 27.8C175.464 26.52 177.024 25.5333 178.811 24.84C180.597 24.12 182.544 23.76 184.651 23.76C186.677 23.76 188.584 24.1067 190.371 24.8C192.157 25.4667 193.664 26.48 194.891 27.84L193.011 29.72C191.864 28.5467 190.597 27.7067 189.211 27.2C187.824 26.6667 186.331 26.4 184.731 26.4C183.051 26.4 181.491 26.6933 180.051 27.28C178.611 27.84 177.357 28.6533 176.291 29.72C175.224 30.76 174.384 31.9867 173.771 33.4C173.184 34.7867 172.891 36.32 172.891 38C172.891 39.68 173.184 41.2267 173.771 42.64C174.384 44.0267 175.224 45.2533 176.291 46.32C177.357 47.36 178.611 48.1733 180.051 48.76C181.491 49.32 183.051 49.6 184.731 49.6C186.331 49.6 187.824 49.3333 189.211 48.8C190.597 48.2667 191.864 47.4133 193.011 46.24L194.891 48.12C193.664 49.48 192.157 50.5067 190.371 51.2C188.584 51.8933 186.664 52.24 184.611 52.24ZM212.481 52.24C208.907 52.24 206.094 51.2133 204.041 49.16C201.987 47.1067 200.961 44.0667 200.961 40.04V24H203.921V39.92C203.921 43.2267 204.667 45.6667 206.161 47.24C207.654 48.8133 209.761 49.6 212.481 49.6C215.227 49.6 217.347 48.8133 218.841 47.24C220.334 45.6667 221.081 43.2267 221.081 39.92V24H223.961V40.04C223.961 44.0667 222.934 47.1067 220.881 49.16C218.854 51.2133 216.054 52.24 212.481 52.24ZM232.88 52V24H243.36C245.734 24 247.774 24.3867 249.48 25.16C251.187 25.9067 252.494 27 253.4 28.44C254.334 29.8533 254.8 31.5733 254.8 33.6C254.8 35.5733 254.334 37.28 253.4 38.72C252.494 40.1333 251.187 41.2267 249.48 42C247.774 42.7467 245.734 43.12 243.36 43.12H234.52L235.84 41.76V52H232.88ZM252 52L244.8 41.84H248L255.24 52H252ZM235.84 42L234.52 40.6H243.28C246.08 40.6 248.2 39.9867 249.64 38.76C251.107 37.5333 251.84 35.8133 251.84 33.6C251.84 31.36 251.107 29.6267 249.64 28.4C248.2 27.1733 246.08 26.56 243.28 26.56H234.52L235.84 25.16V42ZM257.307 52L270.107 24H273.027L285.827 52H282.707L270.947 25.72H272.147L260.387 52H257.307ZM262.347 44.52L263.227 42.12H279.507L280.387 44.52H262.347Z" fill="#F9DEEA"/>
<path d="M120.936 67.084C120.199 67.084 119.517 66.9627 118.892 66.72C118.267 66.468 117.725 66.118 117.268 65.67C116.811 65.222 116.451 64.6947 116.19 64.088C115.938 63.4813 115.812 62.8187 115.812 62.1C115.812 61.3813 115.938 60.7187 116.19 60.112C116.451 59.5053 116.811 58.978 117.268 58.53C117.735 58.082 118.281 57.7367 118.906 57.494C119.531 57.242 120.213 57.116 120.95 57.116C121.659 57.116 122.327 57.2373 122.952 57.48C123.577 57.7133 124.105 58.068 124.534 58.544L123.876 59.202C123.475 58.7913 123.031 58.4973 122.546 58.32C122.061 58.1333 121.538 58.04 120.978 58.04C120.39 58.04 119.844 58.1427 119.34 58.348C118.836 58.544 118.397 58.8287 118.024 59.202C117.651 59.566 117.357 59.9953 117.142 60.49C116.937 60.9753 116.834 61.512 116.834 62.1C116.834 62.688 116.937 63.2293 117.142 63.724C117.357 64.2093 117.651 64.6387 118.024 65.012C118.397 65.376 118.836 65.6607 119.34 65.866C119.844 66.062 120.39 66.16 120.978 66.16C121.538 66.16 122.061 66.0667 122.546 65.88C123.031 65.6933 123.475 65.3947 123.876 64.984L124.534 65.642C124.105 66.118 123.577 66.4773 122.952 66.72C122.327 66.9627 121.655 67.084 120.936 67.084ZM127.597 61.582H132.777V62.464H127.597V61.582ZM127.709 66.104H133.603V67H126.673V57.2H133.393V58.096H127.709V66.104ZM137.848 67V57.816L138.128 58.096H134.404V57.2H142.314V58.096H138.604L138.87 57.816V67H137.848ZM148.234 60.7C149.392 60.7 150.274 60.9613 150.88 61.484C151.496 61.9973 151.804 62.7627 151.804 63.78C151.804 64.8347 151.478 65.6373 150.824 66.188C150.171 66.7293 149.238 67 148.024 67H144.132V57.2H145.154V60.7H148.234ZM147.996 66.174C148.902 66.174 149.588 65.9733 150.054 65.572C150.53 65.1707 150.768 64.5827 150.768 63.808C150.768 63.0333 150.535 62.464 150.068 62.1C149.602 61.7267 148.911 61.54 147.996 61.54H145.154V66.174H147.996ZM157.736 67V57.2H161.404C162.235 57.2 162.949 57.3353 163.546 57.606C164.143 57.8673 164.601 58.25 164.918 58.754C165.245 59.2487 165.408 59.8507 165.408 60.56C165.408 61.2507 165.245 61.848 164.918 62.352C164.601 62.8467 164.143 63.2293 163.546 63.5C162.949 63.7707 162.235 63.906 161.404 63.906H158.31L158.772 63.416V67H157.736ZM158.772 63.5L158.31 62.996H161.376C162.356 62.996 163.098 62.786 163.602 62.366C164.115 61.9367 164.372 61.3347 164.372 60.56C164.372 59.776 164.115 59.1693 163.602 58.74C163.098 58.3107 162.356 58.096 161.376 58.096H158.31L158.772 57.606V63.5ZM168.449 61.582H173.629V62.464H168.449V61.582ZM168.561 66.104H174.455V67H167.525V57.2H174.245V58.096H168.561V66.104ZM181.01 67.084C180.273 67.084 179.592 66.9627 178.966 66.72C178.341 66.468 177.8 66.118 177.342 65.67C176.885 65.222 176.526 64.6947 176.264 64.088C176.012 63.4813 175.886 62.8187 175.886 62.1C175.886 61.3813 176.012 60.7187 176.264 60.112C176.526 59.5053 176.885 58.978 177.342 58.53C177.809 58.082 178.355 57.7367 178.98 57.494C179.606 57.242 180.287 57.116 181.024 57.116C181.734 57.116 182.401 57.2373 183.026 57.48C183.652 57.7133 184.179 58.068 184.608 58.544L183.95 59.202C183.549 58.7913 183.106 58.4973 182.62 58.32C182.135 58.1333 181.612 58.04 181.052 58.04C180.464 58.04 179.918 58.1427 179.414 58.348C178.91 58.544 178.472 58.8287 178.098 59.202C177.725 59.566 177.431 59.9953 177.216 60.49C177.011 60.9753 176.908 61.512 176.908 62.1C176.908 62.688 177.011 63.2293 177.216 63.724C177.431 64.2093 177.725 64.6387 178.098 65.012C178.472 65.376 178.91 65.6607 179.414 65.866C179.918 66.062 180.464 66.16 181.052 66.16C181.612 66.16 182.135 66.0667 182.62 65.88C183.106 65.6933 183.549 65.3947 183.95 64.984L184.608 65.642C184.179 66.118 183.652 66.4773 183.026 66.72C182.401 66.9627 181.729 67.084 181.01 67.084ZM188.571 67V57.816L188.851 58.096H185.127V57.2H193.037V58.096H189.327L189.593 57.816V67H188.571ZM199.016 67.084C198.279 67.084 197.593 66.9627 196.958 66.72C196.333 66.468 195.787 66.118 195.32 65.67C194.863 65.2127 194.504 64.6853 194.242 64.088C193.99 63.4813 193.864 62.8187 193.864 62.1C193.864 61.3813 193.99 60.7233 194.242 60.126C194.504 59.5193 194.863 58.992 195.32 58.544C195.787 58.0867 196.333 57.7367 196.958 57.494C197.584 57.242 198.27 57.116 199.016 57.116C199.754 57.116 200.435 57.242 201.06 57.494C201.686 57.7367 202.227 58.082 202.684 58.53C203.151 58.978 203.51 59.5053 203.762 60.112C204.024 60.7187 204.154 61.3813 204.154 62.1C204.154 62.8187 204.024 63.4813 203.762 64.088C203.51 64.6947 203.151 65.222 202.684 65.67C202.227 66.118 201.686 66.468 201.06 66.72C200.435 66.9627 199.754 67.084 199.016 67.084ZM199.016 66.16C199.604 66.16 200.146 66.062 200.64 65.866C201.144 65.6607 201.578 65.376 201.942 65.012C202.316 64.6387 202.605 64.2093 202.81 63.724C203.016 63.2293 203.118 62.688 203.118 62.1C203.118 61.512 203.016 60.9753 202.81 60.49C202.605 59.9953 202.316 59.566 201.942 59.202C201.578 58.8287 201.144 58.544 200.64 58.348C200.146 58.1427 199.604 58.04 199.016 58.04C198.428 58.04 197.882 58.1427 197.378 58.348C196.874 58.544 196.436 58.8287 196.062 59.202C195.698 59.566 195.409 59.9953 195.194 60.49C194.989 60.9753 194.886 61.512 194.886 62.1C194.886 62.6787 194.989 63.2153 195.194 63.71C195.409 64.2047 195.698 64.6387 196.062 65.012C196.436 65.376 196.874 65.6607 197.378 65.866C197.882 66.062 198.428 66.16 199.016 66.16ZM206.627 67V57.2H210.295C211.125 57.2 211.839 57.3353 212.437 57.606C213.034 57.8673 213.491 58.25 213.809 58.754C214.135 59.2487 214.299 59.8507 214.299 60.56C214.299 61.2507 214.135 61.848 213.809 62.352C213.491 62.8467 213.034 63.2293 212.437 63.5C211.839 63.7707 211.125 63.906 210.295 63.906H207.201L207.663 63.416V67H206.627ZM207.663 63.5L207.201 62.996H210.267C211.247 62.996 211.989 62.786 212.493 62.366C213.006 61.9367 213.263 61.3347 213.263 60.56C213.263 59.776 213.006 59.1693 212.493 58.74C211.989 58.3107 211.247 58.096 210.267 58.096H207.201L207.663 57.606V63.5ZM214.481 67L218.961 57.2H219.983L224.463 67H223.371L219.255 57.802H219.675L215.559 67H214.481ZM216.245 64.382L216.553 63.542H222.251L222.559 64.382H216.245ZM233.509 57.2H234.531V67H233.509V57.2ZM227.377 67H226.341V57.2H227.377V67ZM233.607 62.478H227.265V61.568H233.607V62.478ZM242.138 67.084C241.4 67.084 240.714 66.9627 240.08 66.72C239.454 66.468 238.908 66.118 238.442 65.67C237.984 65.2127 237.625 64.6853 237.364 64.088C237.112 63.4813 236.986 62.8187 236.986 62.1C236.986 61.3813 237.112 60.7233 237.364 60.126C237.625 59.5193 237.984 58.992 238.442 58.544C238.908 58.0867 239.454 57.7367 240.08 57.494C240.705 57.242 241.391 57.116 242.138 57.116C242.875 57.116 243.556 57.242 244.182 57.494C244.807 57.7367 245.348 58.082 245.806 58.53C246.272 58.978 246.632 59.5053 246.884 60.112C247.145 60.7187 247.276 61.3813 247.276 62.1C247.276 62.8187 247.145 63.4813 246.884 64.088C246.632 64.6947 246.272 65.222 245.806 65.67C245.348 66.118 244.807 66.468 244.182 66.72C243.556 66.9627 242.875 67.084 242.138 67.084ZM242.138 66.16C242.726 66.16 243.267 66.062 243.762 65.866C244.266 65.6607 244.7 65.376 245.064 65.012C245.437 64.6387 245.726 64.2093 245.932 63.724C246.137 63.2293 246.24 62.688 246.24 62.1C246.24 61.512 246.137 60.9753 245.932 60.49C245.726 59.9953 245.437 59.566 245.064 59.202C244.7 58.8287 244.266 58.544 243.762 58.348C243.267 58.1427 242.726 58.04 242.138 58.04C241.55 58.04 241.004 58.1427 240.5 58.348C239.996 58.544 239.557 58.8287 239.184 59.202C238.82 59.566 238.53 59.9953 238.316 60.49C238.11 60.9753 238.008 61.512 238.008 62.1C238.008 62.6787 238.11 63.2153 238.316 63.71C238.53 64.2047 238.82 64.6387 239.184 65.012C239.557 65.376 239.996 65.6607 240.5 65.866C241.004 66.062 241.55 66.16 242.138 66.16ZM249.748 67V57.2H253.822C254.858 57.2 255.67 57.4147 256.258 57.844C256.855 58.264 257.154 58.8847 257.154 59.706C257.154 60.518 256.869 61.134 256.3 61.554C255.73 61.9647 254.984 62.17 254.06 62.17L254.298 61.82C255.39 61.82 256.22 62.0347 256.79 62.464C257.359 62.8933 257.644 63.5233 257.644 64.354C257.644 65.194 257.345 65.8473 256.748 66.314C256.16 66.7713 255.273 67 254.088 67H249.748ZM250.77 66.174H254.088C254.918 66.174 255.548 66.02 255.978 65.712C256.407 65.404 256.622 64.928 256.622 64.284C256.622 63.6493 256.407 63.1827 255.978 62.884C255.548 62.5853 254.918 62.436 254.088 62.436H250.77V66.174ZM250.77 61.638H253.766C254.522 61.638 255.1 61.4887 255.502 61.19C255.912 60.882 256.118 60.4293 256.118 59.832C256.118 59.2347 255.912 58.7867 255.502 58.488C255.1 58.18 254.522 58.026 253.766 58.026H250.77V61.638ZM115.21 84L119.69 74.2H120.712L125.192 84H124.1L119.984 74.802H120.404L116.288 84H115.21ZM116.974 81.382L117.282 80.542H122.98L123.288 81.382H116.974ZM125.908 82.824L126.286 82.082C126.715 82.4553 127.196 82.7353 127.728 82.922C128.269 83.0993 128.811 83.1927 129.352 83.202C129.893 83.202 130.388 83.1227 130.836 82.964C131.293 82.8053 131.662 82.572 131.942 82.264C132.222 81.9467 132.362 81.564 132.362 81.116C132.362 80.5467 132.133 80.108 131.676 79.8C131.228 79.492 130.603 79.338 129.8 79.338H127.7V78.498H129.744C130.435 78.498 130.971 78.3533 131.354 78.064C131.746 77.7653 131.942 77.3547 131.942 76.832C131.942 76.4587 131.83 76.1413 131.606 75.88C131.391 75.6093 131.093 75.404 130.71 75.264C130.337 75.1147 129.917 75.0353 129.45 75.026C128.983 75.0073 128.498 75.068 127.994 75.208C127.499 75.3387 127.019 75.5487 126.552 75.838L126.216 74.984C126.795 74.6387 127.397 74.4007 128.022 74.27C128.647 74.13 129.254 74.0833 129.842 74.13C130.43 74.1767 130.957 74.312 131.424 74.536C131.9 74.76 132.278 75.054 132.558 75.418C132.838 75.782 132.978 76.216 132.978 76.72C132.978 77.1867 132.857 77.5973 132.614 77.952C132.381 78.3067 132.049 78.582 131.62 78.778C131.2 78.9647 130.701 79.058 130.122 79.058L130.178 78.75C130.831 78.75 131.396 78.8527 131.872 79.058C132.357 79.2633 132.731 79.5573 132.992 79.94C133.263 80.3133 133.398 80.752 133.398 81.256C133.398 81.732 133.277 82.1567 133.034 82.53C132.801 82.894 132.474 83.202 132.054 83.454C131.643 83.6967 131.181 83.874 130.668 83.986C130.155 84.0887 129.618 84.1167 129.058 84.07C128.498 84.0233 127.947 83.902 127.406 83.706C126.865 83.5007 126.365 83.2067 125.908 82.824ZM135.97 84V74.2H136.992V82.32L143.264 74.2H144.202V84H143.18V75.894L136.908 84H135.97ZM146.067 84L150.547 74.2H151.569L156.049 84H154.957L150.841 74.802H151.261L147.145 84H146.067ZM147.831 81.382L148.139 80.542H153.837L154.145 81.382H147.831ZM159.381 84V74.816L159.661 75.096H155.937V74.2H163.847V75.096H160.137L160.403 74.816V84H159.381ZM169.813 84.084C169.076 84.084 168.394 83.9627 167.769 83.72C167.144 83.468 166.602 83.118 166.145 82.67C165.688 82.222 165.328 81.6947 165.067 81.088C164.815 80.4813 164.689 79.8187 164.689 79.1C164.689 78.3813 164.815 77.7187 165.067 77.112C165.328 76.5053 165.688 75.978 166.145 75.53C166.612 75.082 167.158 74.7367 167.783 74.494C168.408 74.242 169.09 74.116 169.827 74.116C170.536 74.116 171.204 74.2373 171.829 74.48C172.454 74.7133 172.982 75.068 173.411 75.544L172.753 76.202C172.352 75.7913 171.908 75.4973 171.423 75.32C170.938 75.1333 170.415 75.04 169.855 75.04C169.267 75.04 168.721 75.1427 168.217 75.348C167.713 75.544 167.274 75.8287 166.901 76.202C166.528 76.566 166.234 76.9953 166.019 77.49C165.814 77.9753 165.711 78.512 165.711 79.1C165.711 79.688 165.814 80.2293 166.019 80.724C166.234 81.2093 166.528 81.6387 166.901 82.012C167.274 82.376 167.713 82.6607 168.217 82.866C168.721 83.062 169.267 83.16 169.855 83.16C170.415 83.16 170.938 83.0667 171.423 82.88C171.908 82.6933 172.352 82.3947 172.753 81.984L173.411 82.642C172.982 83.118 172.454 83.4773 171.829 83.72C171.204 83.9627 170.532 84.084 169.813 84.084ZM182.256 84L178.49 79.114L179.33 78.61L183.446 84H182.256ZM175.55 84V74.2H176.558V84H175.55ZM176.25 79.506V78.596H179.316V79.506H176.25ZM179.414 79.212L178.462 79.044L182.116 74.2H183.236L179.414 79.212ZM189.323 84.084C188.586 84.084 187.9 83.9627 187.265 83.72C186.64 83.468 186.094 83.118 185.627 82.67C185.17 82.2127 184.81 81.6853 184.549 81.088C184.297 80.4813 184.171 79.8187 184.171 79.1C184.171 78.3813 184.297 77.7233 184.549 77.126C184.81 76.5193 185.17 75.992 185.627 75.544C186.094 75.0867 186.64 74.7367 187.265 74.494C187.89 74.242 188.576 74.116 189.323 74.116C190.06 74.116 190.742 74.242 191.367 74.494C191.992 74.7367 192.534 75.082 192.991 75.53C193.458 75.978 193.817 76.5053 194.069 77.112C194.33 77.7187 194.461 78.3813 194.461 79.1C194.461 79.8187 194.33 80.4813 194.069 81.088C193.817 81.6947 193.458 82.222 192.991 82.67C192.534 83.118 191.992 83.468 191.367 83.72C190.742 83.9627 190.06 84.084 189.323 84.084ZM189.323 83.16C189.911 83.16 190.452 83.062 190.947 82.866C191.451 82.6607 191.885 82.376 192.249 82.012C192.622 81.6387 192.912 81.2093 193.117 80.724C193.322 80.2293 193.425 79.688 193.425 79.1C193.425 78.512 193.322 77.9753 193.117 77.49C192.912 76.9953 192.622 76.566 192.249 76.202C191.885 75.8287 191.451 75.544 190.947 75.348C190.452 75.1427 189.911 75.04 189.323 75.04C188.735 75.04 188.189 75.1427 187.685 75.348C187.181 75.544 186.742 75.8287 186.369 76.202C186.005 76.566 185.716 76.9953 185.501 77.49C185.296 77.9753 185.193 78.512 185.193 79.1C185.193 79.6787 185.296 80.2153 185.501 80.71C185.716 81.2047 186.005 81.6387 186.369 82.012C186.742 82.376 187.181 82.6607 187.685 82.866C188.189 83.062 188.735 83.16 189.323 83.16ZM196.933 84V74.2H197.955V82.32L204.227 74.2H205.165V84H204.143V75.894L197.871 84H196.933ZM201.021 73.486C200.321 73.486 199.766 73.3273 199.355 73.01C198.954 72.6927 198.749 72.2493 198.739 71.68H199.509C199.519 72.0533 199.659 72.3473 199.929 72.562C200.209 72.7767 200.573 72.884 201.021 72.884C201.469 72.884 201.829 72.7767 202.099 72.562C202.379 72.3473 202.524 72.0533 202.533 71.68H203.303C203.294 72.2493 203.084 72.6927 202.673 73.01C202.263 73.3273 201.712 73.486 201.021 73.486ZM213.06 78.582H218.24V79.464H213.06V78.582ZM213.172 83.104H219.066V84H212.136V74.2H218.856V75.096H213.172V83.104ZM227.875 83.51V75.096H223.185L223.101 77.476C223.073 78.2133 223.026 78.9227 222.961 79.604C222.905 80.276 222.812 80.8827 222.681 81.424C222.56 81.956 222.392 82.39 222.177 82.726C221.972 83.062 221.701 83.258 221.365 83.314L220.231 83.104C220.604 83.1227 220.912 82.9873 221.155 82.698C221.407 82.4087 221.598 82.0027 221.729 81.48C221.869 80.9573 221.972 80.346 222.037 79.646C222.102 78.946 222.149 78.19 222.177 77.378L222.289 74.2H228.897V83.51H227.875ZM219.867 86.198L219.881 83.104H230.367V86.198H229.401V84H220.847L220.833 86.198H219.867ZM236.582 77.7C237.739 77.7 238.621 77.9613 239.228 78.484C239.844 78.9973 240.152 79.7627 240.152 80.78C240.152 81.8347 239.825 82.6373 239.172 83.188C238.519 83.7293 237.585 84 236.372 84H232.48V74.2H233.502V77.7H236.582ZM236.344 83.174C237.249 83.174 237.935 82.9733 238.402 82.572C238.878 82.1707 239.116 81.5827 239.116 80.808C239.116 80.0333 238.883 79.464 238.416 79.1C237.949 78.7267 237.259 78.54 236.344 78.54H233.502V83.174H236.344ZM241.846 84V74.2H242.868V84H241.846Z" fill="#F9DEEA"/>
<path d="M104.747 38.3264C104.584 37.9346 104.269 37.627 103.873 37.4732L100.005 35.9628L101.328 31.624V31.6247C101.525 30.9776 101.283 30.2768 100.729 29.8902C92.9453 24.4573 83.5021 26.6082 78.2646 28.3552C79.7996 16.6362 69.4162 6.86058 68.9375 6.41486V6.41414C68.5885 6.08479 68.1046 5.93969 67.6317 6.02312C67.1594 6.09856 66.7473 6.38511 66.5123 6.80152L63.6003 12.0015L60.5091 9.08952H60.5098C60.0013 8.60637 59.233 8.52294 58.6332 8.88566C55.6044 11.0351 53.2098 13.9601 51.7008 17.3546C50.1926 20.7489 49.6253 24.4864 50.0599 28.1754C38.7697 22.905 26.177 32.5143 25.6069 32.9553C25.255 33.2267 25.036 33.6351 25.004 34.0783C24.9721 34.5216 25.131 34.9576 25.4408 35.2768L28.9686 38.9084L25.8811 42.1657C25.3689 42.7083 25.3131 43.5389 25.7483 44.1454C29.5113 49.3643 34.926 53.159 41.1154 54.9161C32.117 64.1306 35.7073 77.6921 35.874 78.3031H35.8733C35.9886 78.7434 36.2933 79.1105 36.7054 79.3056C37.1225 79.4986 37.6035 79.4986 38.0199 79.3056L43.5651 76.7099L44.9007 81.344V81.3433C45.0937 82.0122 45.7067 82.4721 46.4024 82.4706C46.4865 82.4721 46.5699 82.4648 46.6519 82.4503C53.8556 81.7437 60.3019 77.6769 64.0409 71.4802C71.0089 82.2958 86.1316 82.0005 86.8299 81.997C87.3123 81.981 87.7607 81.7438 88.0443 81.3535C88.328 80.9632 88.4157 80.4634 88.2815 79.9998L86.7298 74.683L89.7709 75.0987V75.0994C90.571 75.2148 91.3255 74.6975 91.5061 73.9097C92.463 70.6023 92.5203 67.0992 91.6708 63.7621C90.822 60.425 89.0977 57.3752 86.676 54.9277C94.6305 52.6397 101.21 47.0291 104.727 39.5359C104.895 39.1514 104.902 38.7154 104.747 38.3251L104.747 38.3264ZM83.6107 52.4037C83.0644 52.4878 82.6038 52.8542 82.3999 53.3678C82.1961 53.8814 82.2802 54.4647 82.6205 54.8999C83.0361 55.4114 83.4526 55.9235 83.8682 56.443C88.0671 60.3727 89.917 66.2039 88.752 71.8355L84.7881 71.2864C84.2643 71.2153 83.7405 71.4133 83.3952 71.8123C83.0492 72.212 82.9288 72.7583 83.0738 73.2661L84.6959 78.8193C80.2243 78.474 69.7198 76.7018 65.5599 67.8165C65.3235 67.3029 64.8265 66.9583 64.2621 66.9177C63.6955 66.8676 63.1486 67.1375 62.8439 67.617L62.2367 68.5492L62.236 68.5485C59.308 74.2382 53.8302 78.1794 47.5058 79.1487L46.0542 74.1149C45.9287 73.676 45.6168 73.314 45.2011 73.1247C44.9965 73.0347 44.776 72.9875 44.5518 72.9875C44.3233 72.9868 44.0977 73.0362 43.8909 73.1334L38.4827 75.663V75.6623C37.7196 72.0046 37.9394 68.2097 39.1197 64.6637C40.2993 61.1184 42.3979 57.949 45.2011 55.4781C45.669 55.1168 45.891 54.522 45.7757 53.9423C45.6603 53.3634 45.2265 52.8991 44.6563 52.7446C38.5422 51.486 33.0397 48.1816 29.0563 43.377L32.2591 39.9782C32.8337 39.3725 32.8337 38.4243 32.2591 37.8186L28.9809 34.4408C32.6959 32.057 42.8376 26.6285 50.845 32.2317H50.8458C51.3383 32.5756 51.9833 32.6097 52.5092 32.3188C53.0272 32.0221 53.3297 31.4548 53.2876 30.8592C53.038 26.0089 52.576 17.1685 59.2986 12.2135L62.939 15.6455H62.9383C63.2836 15.9828 63.7682 16.1373 64.2448 16.0611C64.7207 15.9886 65.1371 15.6999 65.3722 15.2791L68.205 10.1829C71.0923 13.4444 77.2528 21.7022 74.6571 30.3385V30.3392C74.4866 30.9087 74.6542 31.5253 75.0902 31.9301C75.5255 32.3349 76.153 32.4568 76.7079 32.2443C80.0777 30.9588 90.0866 27.1481 98.0019 31.8532L96.6004 36.4294C96.3603 37.2107 96.7651 38.045 97.5282 38.3387L101.131 39.7403V39.741C97.4978 46.3876 91.06 51.0406 83.6089 52.4038L83.6107 52.4037ZM68.8798 51.7007C69.8316 50.5705 70.3576 49.1429 70.3648 47.6657C70.3648 47.5286 70.3314 47.3995 70.3235 47.25L75.1325 45.6772C75.932 45.3958 76.3607 44.5281 76.0988 43.7222C75.8369 42.917 74.9795 42.4679 74.1678 42.711L69.3754 44.275C68.5056 42.8959 67.1403 41.9029 65.5603 41.5003V36.475C65.5603 35.6139 64.8617 34.9153 64.0006 34.9153C63.1388 34.9153 62.4402 35.6139 62.4402 36.475V41.5168C60.8572 41.9194 59.4897 42.9162 58.6215 44.3003L53.8249 42.7696V42.7689C53.0058 42.507 52.1295 42.9589 51.8676 43.778C51.6057 44.597 52.0577 45.4733 52.8767 45.7352L57.6771 47.2746C57.6771 47.4037 57.6357 47.5329 57.6357 47.6656C57.643 49.1564 58.1784 50.5956 59.1461 51.7296L56.2009 55.819C55.9585 56.1556 55.8599 56.5742 55.9274 56.9834C55.9941 57.3925 56.2212 57.7574 56.5585 57.999C56.8233 58.1905 57.1425 58.2921 57.4696 58.2899C57.9637 58.2841 58.4265 58.0447 58.7174 57.6457L61.6504 53.573C62.3918 53.8682 63.1818 54.0221 63.9798 54.0264C64.793 54.0257 65.599 53.8661 66.3514 53.5563L69.2924 57.6079C69.7987 58.305 70.7752 58.4595 71.4723 57.9532C71.8067 57.7094 72.0316 57.3438 72.0962 56.9346C72.1607 56.5255 72.0606 56.1084 71.8176 55.7732L68.8798 51.7007ZM60.7556 47.6657C60.7563 46.8133 61.0936 45.9957 61.6929 45.39C62.2921 44.7842 63.1068 44.4389 63.9584 44.4287H64.0462C64.9029 44.4425 65.719 44.7944 66.3175 45.4081C66.9152 46.0218 67.2453 46.8466 67.2366 47.7033C67.2272 48.5608 66.8789 49.3784 66.2681 49.9798C65.6573 50.5805 64.8339 50.9149 63.9772 50.9098C63.1204 50.9048 62.2999 50.5602 61.6964 49.9523C61.0928 49.3443 60.7548 48.5224 60.7555 47.6657L60.7556 47.6657ZM55.6013 38.8378C55.0913 38.1428 55.2414 37.1663 55.9364 36.6564C56.6314 36.1464 57.6078 36.2958 58.1178 36.9908L59.5781 38.9793C60.0867 39.6742 59.9358 40.65 59.2415 41.1592C58.9746 41.3579 58.6503 41.4646 58.318 41.4631C57.8247 41.458 57.3634 41.2223 57.0695 40.8262L55.6013 38.8378ZM68.7014 41.1215C68.0035 40.6181 67.8453 39.6445 68.3474 38.9459L69.791 36.9452C70.2944 36.2458 71.2694 36.0862 71.9689 36.5897C72.6682 37.0924 72.8278 38.0674 72.3243 38.7676L70.885 40.7683C70.6427 41.1049 70.2764 41.3312 69.8665 41.3972C69.4566 41.464 69.0373 41.3646 68.7015 41.1215L68.7014 41.1215ZM77.0006 51.8298C76.7887 52.4733 76.1888 52.9093 75.5112 52.9114C75.3502 52.9129 75.1898 52.8875 75.0368 52.8367L72.6864 52.0837C72.2845 51.964 71.9471 51.6876 71.7513 51.3162C71.5554 50.9455 71.517 50.5109 71.6454 50.1112C71.773 49.7122 72.0574 49.3807 72.4325 49.1928C72.8075 49.0049 73.2428 48.9766 73.6389 49.113L75.985 49.8703H75.9857C76.8055 50.133 77.2589 51.0086 77.0006 51.8298L77.0006 51.8298ZM65.5893 57.2669V59.7334C65.5915 60.1477 65.429 60.5452 65.1367 60.839C64.845 61.1328 64.4475 61.2975 64.034 61.2975C63.1751 61.2975 62.4786 60.6047 62.4736 59.7457V57.2793C62.4714 56.865 62.6346 56.4668 62.9262 56.1723C63.2179 55.8777 63.6154 55.7123 64.0296 55.7109C64.8893 55.7109 65.5872 56.4066 65.5893 57.2669V57.2669ZM55.3686 52.1496L53.0304 52.9236C52.873 52.9722 52.709 52.9976 52.5436 52.9984C51.7594 53.0267 51.0761 52.4673 50.9484 51.6933C50.8207 50.9185 51.2886 50.1699 52.0402 49.945L54.3819 49.1753H54.3826C54.7801 49.028 55.2205 49.0483 55.6021 49.2326C55.9844 49.4168 56.2745 49.7484 56.4073 50.151C56.5393 50.5536 56.5023 50.9932 56.3036 51.3676C56.1055 51.7426 55.7631 52.0205 55.3561 52.1373L55.3686 52.1496Z" fill="#F9DEEA"/>
</svg>
