<svg width="80" height="77" viewBox="0 0 80 77" fill="none" xmlns="http://www.w3.org/2000/svg">
<path d="M79.7468 32.3264C79.5843 31.9346 79.2688 31.627 78.8734 31.4732L75.0046 29.9628L76.3278 25.624V25.6247C76.5251 24.9776 76.2828 24.2768 75.7286 23.8902C67.9453 18.4573 58.5021 20.6082 53.2646 22.3552C54.7996 10.6362 44.4162 0.860578 43.9375 0.414864V0.41414C43.5885 0.084794 43.1046 -0.0603059 42.6317 0.023117C42.1594 0.0985634 41.7473 0.385112 41.5123 0.801521L38.6003 6.00152L35.5091 3.08952H35.5098C35.0013 2.60637 34.233 2.52294 33.6332 2.88566C30.6044 5.03512 28.2098 7.96012 26.7008 11.3546C25.1926 14.7489 24.6253 18.4864 25.0599 22.1754C13.7697 16.905 1.17702 26.5143 0.606878 26.9553C0.255042 27.2267 0.0359533 27.6351 0.00402897 28.0783C-0.0278916 28.5216 0.130983 28.9576 0.440756 29.2768L3.96859 32.9084L0.881085 36.1657C0.368922 36.7083 0.313059 37.5389 0.748329 38.1454C4.51127 43.3643 9.92596 47.159 16.1154 48.9161C7.11703 58.1306 10.7073 71.6921 10.874 72.3031H10.8733C10.9886 72.7434 11.2933 73.1105 11.7054 73.3056C12.1225 73.4986 12.6035 73.4986 13.0199 73.3056L18.5651 70.7099L19.9007 75.344V75.3433C20.0937 76.0122 20.7067 76.4721 21.4024 76.4706C21.4865 76.4721 21.5699 76.4648 21.6519 76.4503C28.8556 75.7437 35.3019 71.6769 39.0409 65.4802C46.0089 76.2958 61.1316 76.0005 61.8299 75.997C62.3123 75.981 62.7607 75.7438 63.0443 75.3535C63.328 74.9632 63.4157 74.4634 63.2815 73.9998L61.7298 68.683L64.7709 69.0987V69.0994C65.571 69.2148 66.3255 68.6975 66.5061 67.9097C67.463 64.6023 67.5203 61.0992 66.6708 57.7621C65.822 54.425 64.0977 51.3752 61.676 48.9277C69.6305 46.6397 76.2104 41.0291 79.7265 33.5359C79.8948 33.1514 79.9021 32.7154 79.7468 32.3251L79.7468 32.3264ZM58.6107 46.4037C58.0644 46.4878 57.6038 46.8542 57.3999 47.3678C57.1961 47.8814 57.2802 48.4647 57.6205 48.8999C58.0361 49.4114 58.4526 49.9235 58.8682 50.443C63.0671 54.3727 64.917 60.2039 63.752 65.8355L59.7881 65.2864C59.2643 65.2153 58.7405 65.4133 58.3952 65.8123C58.0492 66.212 57.9288 66.7583 58.0738 67.2661L59.6959 72.8193C55.2243 72.474 44.7198 70.7018 40.5599 61.8165C40.3235 61.3029 39.8265 60.9583 39.2621 60.9177C38.6955 60.8676 38.1486 61.1375 37.8439 61.617L37.2367 62.5492L37.236 62.5485C34.308 68.2382 28.8302 72.1794 22.5058 73.1487L21.0542 68.1149C20.9287 67.676 20.6168 67.314 20.2011 67.1247C19.9965 67.0347 19.776 66.9875 19.5518 66.9875C19.3233 66.9868 19.0977 67.0362 18.8909 67.1334L13.4827 69.663V69.6623C12.7196 66.0046 12.9394 62.2097 14.1197 58.6637C15.2993 55.1184 17.3979 51.949 20.2011 49.4781C20.669 49.1168 20.891 48.522 20.7757 47.9423C20.6603 47.3634 20.2265 46.8991 19.6563 46.7446C13.5422 45.486 8.03968 42.1816 4.05629 37.377L7.25912 33.9782C7.83369 33.3725 7.83369 32.4243 7.25912 31.8186L3.9809 28.4408C7.69592 26.057 17.8376 20.6285 25.845 26.2317H25.8458C26.3383 26.5756 26.9833 26.6097 27.5092 26.3188C28.0272 26.0221 28.3297 25.4548 28.2876 24.8592C28.038 20.0089 27.576 11.1685 34.2986 6.21346L37.939 9.64546H37.9383C38.2836 9.98279 38.7682 10.1373 39.2448 10.0611C39.7207 9.9886 40.1371 9.69988 40.3722 9.27912L43.205 4.18293C46.0923 7.44445 52.2528 15.7022 49.6571 24.3385V24.3392C49.4866 24.9087 49.6542 25.5253 50.0902 25.9301C50.5255 26.3349 51.153 26.4568 51.7079 26.2443C55.0777 24.9588 65.0866 21.1481 73.0019 25.8532L71.6004 30.4294C71.3603 31.2107 71.7651 32.045 72.5282 32.3387L76.1307 33.7403V33.741C72.4978 40.3876 66.06 45.0406 58.6089 46.4038L58.6107 46.4037ZM43.8798 45.7007C44.8316 44.5705 45.3576 43.1429 45.3648 41.6657C45.3648 41.5286 45.3314 41.3995 45.3235 41.25L50.1325 39.6772C50.932 39.3958 51.3607 38.5281 51.0988 37.7222C50.8369 36.917 49.9795 36.4679 49.1678 36.711L44.3754 38.275C43.5056 36.8959 42.1403 35.9029 40.5603 35.5003V30.475C40.5603 29.6139 39.8617 28.9153 39.0006 28.9153C38.1388 28.9153 37.4402 29.6139 37.4402 30.475V35.5168C35.8572 35.9194 34.4897 36.9162 33.6215 38.3003L28.8249 36.7696V36.7689C28.0058 36.507 27.1295 36.9589 26.8676 37.778C26.6057 38.597 27.0577 39.4733 27.8767 39.7352L32.6771 41.2746C32.6771 41.4037 32.6357 41.5329 32.6357 41.6656C32.643 43.1564 33.1784 44.5956 34.1461 45.7296L31.2009 49.819C30.9585 50.1556 30.8599 50.5742 30.9274 50.9834C30.9941 51.3925 31.2212 51.7574 31.5585 51.999C31.8233 52.1905 32.1425 52.2921 32.4696 52.2899C32.9637 52.2841 33.4265 52.0447 33.7174 51.6457L36.6504 47.573C37.3918 47.8682 38.1818 48.0221 38.9798 48.0264C39.793 48.0257 40.599 47.8661 41.3514 47.5563L44.2924 51.6079C44.7987 52.305 45.7752 52.4595 46.4723 51.9532C46.8067 51.7094 47.0316 51.3438 47.0962 50.9346C47.1607 50.5255 47.0606 50.1084 46.8176 49.7732L43.8798 45.7007ZM35.7556 41.6657C35.7563 40.8133 36.0936 39.9957 36.6929 39.39C37.2921 38.7842 38.1068 38.4389 38.9584 38.4287H39.0462C39.9029 38.4425 40.719 38.7944 41.3175 39.4081C41.9152 40.0218 42.2453 40.8466 42.2366 41.7033C42.2272 42.5608 41.8789 43.3784 41.2681 43.9798C40.6573 44.5805 39.8339 44.9149 38.9772 44.9098C38.1204 44.9048 37.2999 44.5602 36.6964 43.9523C36.0928 43.3443 35.7548 42.5224 35.7555 41.6657L35.7556 41.6657ZM30.6013 32.8378C30.0913 32.1428 30.2414 31.1663 30.9364 30.6564C31.6314 30.1464 32.6078 30.2958 33.1178 30.9908L34.5781 32.9793C35.0867 33.6742 34.9358 34.65 34.2415 35.1592C33.9746 35.3579 33.6503 35.4646 33.318 35.4631C32.8247 35.458 32.3634 35.2223 32.0695 34.8262L30.6013 32.8378ZM43.7014 35.1215C43.0035 34.6181 42.8453 33.6445 43.3474 32.9459L44.791 30.9452C45.2944 30.2458 46.2694 30.0862 46.9689 30.5897C47.6682 31.0924 47.8278 32.0674 47.3243 32.7676L45.885 34.7683C45.6427 35.1049 45.2764 35.3312 44.8665 35.3972C44.4566 35.464 44.0373 35.3646 43.7015 35.1215L43.7014 35.1215ZM52.0006 45.8298C51.7887 46.4733 51.1888 46.9093 50.5112 46.9114C50.3502 46.9129 50.1898 46.8875 50.0368 46.8367L47.6864 46.0837C47.2845 45.964 46.9471 45.6876 46.7513 45.3162C46.5554 44.9455 46.517 44.5109 46.6454 44.1112C46.773 43.7122 47.0574 43.3807 47.4325 43.1928C47.8075 43.0049 48.2428 42.9766 48.6389 43.113L50.985 43.8703H50.9857C51.8055 44.133 52.2589 45.0086 52.0006 45.8298L52.0006 45.8298ZM40.5893 51.2669V53.7334C40.5915 54.1477 40.429 54.5452 40.1367 54.839C39.845 55.1328 39.4475 55.2975 39.034 55.2975C38.1751 55.2975 37.4786 54.6047 37.4736 53.7457V51.2793C37.4714 50.865 37.6346 50.4668 37.9262 50.1723C38.2179 49.8777 38.6154 49.7123 39.0296 49.7109C39.8893 49.7109 40.5872 50.4066 40.5893 51.2669V51.2669ZM30.3686 46.1496L28.0304 46.9236C27.873 46.9722 27.709 46.9976 27.5436 46.9984C26.7594 47.0267 26.0761 46.4673 25.9484 45.6933C25.8207 44.9185 26.2886 44.1699 27.0402 43.945L29.3819 43.1753H29.3826C29.7801 43.028 30.2205 43.0483 30.6021 43.2326C30.9844 43.4168 31.2745 43.7484 31.4073 44.151C31.5393 44.5536 31.5023 44.9932 31.3036 45.3676C31.1055 45.7426 30.7631 46.0205 30.3561 46.1373L30.3686 46.1496Z" fill="black"/>
</svg>
